<?xml version="1.0" encoding="UTF-8" standalone="no"?>
<svg xmlns="http://www.w3.org/2000/svg" width="800" height="400" viewBox="0 0 800 400">
  <!-- Bottom layer: Gradient background -->
  <defs>
    <linearGradient id="bgGradient" x1="0%" y1="0%" x2="100%" y2="100%">
      <stop offset="0%" style="stop-color:#0f172a;stop-opacity:1" />
      <stop offset="100%" style="stop-color:#1e40af;stop-opacity:1" />
    </linearGradient>
  </defs>
  <rect width="800" height="400" fill="url(#bgGradient)" />
  
  <!-- Middle layer: Himalaya silhouette -->
  <path d="M0,250 L50,230 L100,240 L150,210 L200,220 L250,190 L300,200 L350,170 L400,140 L450,170 L500,190 L550,180 L600,210 L650,200 L700,220 L750,230 L800,240 L800,400 L0,400 Z" 
        fill="#ffffff" fill-opacity="0.08" />
  
  <!-- Top layer: Swayambhunath Stupa silhouette (far right) -->
  <g transform="translate(650, 150)" fill="#ffffff" fill-opacity="0.06">
    <!-- Stupa base -->
    <rect x="-30" y="50" width="60" height="20" />
    <!-- Stupa dome -->
    <ellipse cx="0" cy="40" rx="30" ry="20" />
    <!-- Stupa spire -->
    <rect x="-5" y="0" width="10" height="40" />
    <!-- Stupa eyes -->
    <circle cx="-15" cy="35" r="5" />
    <circle cx="15" cy="35" r="5" />
    <!-- Stupa top ornament -->
    <circle cx="0" cy="0" r="5" />
  </g>
</svg>
